<?xml version="1.0" standalone="no"?><!DOCTYPE svg PUBLIC "-//W3C//DTD SVG 1.1//EN" "http://www.w3.org/Graphics/SVG/1.1/DTD/svg11.dtd"><svg t="1501819223363" class="icon" style="" viewBox="0 0 1024 1024" version="1.1" xmlns="http://www.w3.org/2000/svg" p-id="4370" xmlns:xlink="http://www.w3.org/1999/xlink" width="48" height="48"><defs><style type="text/css"></style></defs><path d="M512 64C264.96 64 64 264.96 64 512s200.96 448 448 448 448-200.96 448-448S759.04 64 512 64zM512 896C300.256 896 128 723.744 128 512 128 300.256 300.256 128 512 128c211.744 0 384 172.256 384 384C896 723.744 723.744 896 512 896z" p-id="4371" fill="#949494"></path><path d="M736 416c0-88.224-71.776-160-160-160l-256 0C302.336 256 288 270.336 288 288s14.336 32 32 32l256 0c52.928 0 96 43.072 96 96s-43.072 96-96 96l-160 0 0-96c0-17.664-14.336-32-32-32s-32 14.336-32 32l0 288-32 0c-17.664 0-32 14.304-32 32s14.336 32 32 32l128 0c17.664 0 32-14.304 32-32s-14.336-32-32-32l-32 0 0-128 78.912 0 118.464 177.76c0.896 1.376 2.08 2.464 3.168 3.648 0.512 0.544 0.864 1.088 1.408 1.6 2.624 2.528 5.6 4.512 8.8 5.952 0.672 0.352 1.408 0.576 2.112 0.8 3.552 1.344 7.296 2.208 11.072 2.24C639.968 768 640 768 640 768l64 0c17.696 0 32-14.304 32-32s-14.304-32-32-32l-46.88 0-85.312-128L576 576C664.224 576 736 504.224 736 416z" p-id="4372" fill="#949494"></path></svg>