<?xml version="1.0" standalone="no"?><!DOCTYPE svg PUBLIC "-//W3C//DTD SVG 1.1//EN" "http://www.w3.org/Graphics/SVG/1.1/DTD/svg11.dtd"><svg t="1499485570609" class="icon" style="" viewBox="0 0 1024 1024" version="1.1" xmlns="http://www.w3.org/2000/svg" p-id="10109" xmlns:xlink="http://www.w3.org/1999/xlink" width="200" height="200"><defs><style type="text/css"></style></defs><path d="M415.087786 897.907187l-261.790378 0.1361c-11.31265 0-23.863501-1.378393-31.997762-11.724019-4.14132-5.240351-6.900154-22.068621-6.900154-33.653471L114.399493 102.598726c0.276293-2.62171 2.346441-20.134573 12.551874-30.343075 14.481829-14.482853 25.379017-16.829294 27.309996-17.104563l404.688949 0L558.950312 163.42507c-0.140193 5.656837 0.276293 42.48358 21.37789 66.61928 19.451004 22.204721 50.209542 33.792641 53.655014 35.035958l4.41352 1.655709 143.310963 0.135076 0 129.240503c15.033391 11.587919 30.202882 23.311939 45.24139 34.900881 2.62171 2.617617 5.240351 5.376451 7.722892 7.998161L834.67198 206.184943 603.224678 2.046612 153.293315 2.046612c-5.240351 0-32.825616 1.51961-63.860447 32.69054-25.379017 25.377994-27.861558 61.654198-28.000728 65.651232l0 751.58668c-0.1361 7.586792 0.551562 44.273343 18.067494 66.75845 10.896164 13.930267 25.379017 23.588231 43.174312 28.41312 13.379729 3.724835 24.963555 3.724835 30.619368 3.724835l357.102141-0.140193c-21.793352-6.895037-42.75885-16.276708-63.172785-28.136827l-32.138978-24.687262L415.087786 897.907187zM611.918687 80.394005l151.033855 133.37773-114.898867-0.140193c-7.586792-3.309372-20.689205-10.205433-28.000728-18.479887-5.791913-6.622838-8.274454-22.344914-8.274454-31.03483L611.918687 80.394005 611.918687 80.394005zM611.918687 80.394005M961.157743 947.562097 830.814116 817.21847c33.932834-46.069245 53.931307-102.898555 53.931307-164.276461 0-153.105027-124.551714-277.655717-277.655717-277.655717S329.433988 499.977175 329.433988 653.077086c0 153.105027 124.551714 277.656741 277.655717 277.656741 61.378929 0 118.208239-19.998473 164.276461-53.93233l130.343627 130.343627c8.274454 8.139378 18.899442 12.279674 29.792537 12.279674 10.760065 0 21.517059-4.140297 29.795607-12.279674C977.570551 990.597239 977.570551 963.974905 961.157743 947.562097L961.157743 947.562097zM607.089705 862.319667c-115.449405 0-209.377658-93.928253-209.377658-209.377658 0-115.446335 93.928253-209.378681 209.377658-209.378681s209.378681 93.932346 209.378681 209.378681C816.468386 768.391415 722.536041 862.319667 607.089705 862.319667L607.089705 862.319667zM607.089705 862.319667" p-id="10110" fill="#949494"></path></svg>