<?xml version="1.0" standalone="no"?><!DOCTYPE svg PUBLIC "-//W3C//DTD SVG 1.1//EN" "http://www.w3.org/Graphics/SVG/1.1/DTD/svg11.dtd"><svg t="1501848408458" class="icon" style="" viewBox="0 0 1024 1024" version="1.1" xmlns="http://www.w3.org/2000/svg" p-id="4756" xmlns:xlink="http://www.w3.org/1999/xlink" width="48" height="48"><defs><style type="text/css"></style></defs><path d="M736 352c-17.696 0-32 14.336-32 32l0 96-96 0c-17.696 0-32 14.336-32 32s14.304 32 32 32l128 0c17.696 0 32-14.336 32-32l0-128C768 366.336 753.696 352 736 352z" p-id="4757"></path><path d="M736 672 288 672c-17.664 0-32-14.304-32-32s14.336-32 32-32l448 0c17.696 0 32 14.304 32 32S753.696 672 736 672z" p-id="4758"></path><path d="M480 544l-32 0c-17.664 0-32-14.336-32-32s14.336-32 32-32l32 0c17.664 0 32 14.336 32 32S497.664 544 480 544z" p-id="4759"></path><path d="M320 544 288 544c-17.664 0-32-14.336-32-32s14.336-32 32-32l32 0c17.664 0 32 14.336 32 32S337.664 544 320 544z" p-id="4760"></path><path d="M480 416l-32 0c-17.664 0-32-14.336-32-32s14.336-32 32-32l32 0c17.664 0 32 14.336 32 32S497.664 416 480 416z" p-id="4761"></path><path d="M640 416l-32 0c-17.696 0-32-14.336-32-32s14.304-32 32-32l32 0c17.696 0 32 14.336 32 32S657.696 416 640 416z" p-id="4762"></path><path d="M320 416 288 416c-17.664 0-32-14.336-32-32s14.336-32 32-32l32 0c17.664 0 32 14.336 32 32S337.664 416 320 416z" p-id="4763"></path><path d="M512.128 957.344c-247.04 0-448-200.96-448-448s200.96-448 448-448 448 200.96 448 448S759.168 957.344 512.128 957.344zM512.128 125.344c-211.744 0-384 172.256-384 384 0 211.744 172.256 384 384 384 211.744 0 384-172.256 384-384C896.128 297.6 723.872 125.344 512.128 125.344z" p-id="4764"></path></svg>