<?xml version="1.0" standalone="no"?><!DOCTYPE svg PUBLIC "-//W3C//DTD SVG 1.1//EN" "http://www.w3.org/Graphics/SVG/1.1/DTD/svg11.dtd"><svg t="1500459857154" class="icon" style="" viewBox="0 0 1024 1024" version="1.1" xmlns="http://www.w3.org/2000/svg" p-id="4497" xmlns:xlink="http://www.w3.org/1999/xlink" width="200" height="200"><defs><style type="text/css"></style></defs><path d="M748.8 377.6L832 233.6c3.2-6.4 3.2-9.6 3.2-16V64c0-32-25.6-32-57.6-32H195.2c-6.4 0-16 3.2-22.4 9.6-6.4 6.4-9.6 12.8-9.6 22.4v153.6c0 6.4 0 9.6 3.2 16l92.8 166.4c-60.8 64-99.2 147.2-99.2 243.2 0 195.2 156.8 352 352 352s352-156.8 352-352c3.2-105.6-44.8-201.6-115.2-265.6z m22.4-169.6l-76.8 131.2c-6.4-3.2-16-9.6-22.4-12.8V96h99.2v112z m-256 80c-44.8 0-86.4 9.6-128 25.6V96h224v204.8c-32-6.4-64-12.8-96-12.8z m-288-192h96v246.4c-3.2 3.2-9.6 6.4-12.8 9.6L227.2 208V96z m288 832c-160 0-288-128-288-288s128-288 288-288 288 128 288 288-131.2 288-288 288z" fill="#666666" p-id="4498"></path><path d="M515.2 448c-105.6 0-192 86.4-192 192s86.4 192 192 192 192-86.4 192-192-86.4-192-192-192z m0 320c-70.4 0-128-57.6-128-128s57.6-128 128-128 128 57.6 128 128-57.6 128-128 128z" fill="#666666" p-id="4499"></path></svg>