<?xml version="1.0" standalone="no"?><!DOCTYPE svg PUBLIC "-//W3C//DTD SVG 1.1//EN" "http://www.w3.org/Graphics/SVG/1.1/DTD/svg11.dtd"><svg t="1493634386635" class="icon" style="" viewBox="0 0 1024 1024" version="1.1" xmlns="http://www.w3.org/2000/svg" p-id="4938" xmlns:xlink="http://www.w3.org/1999/xlink" width="200" height="200"><defs><style type="text/css"></style></defs><path d="M448 928c-1.184 0-2.368-0.064-3.52-0.192l-286.432-31.84C106.016 894.944 64 852.288 64 800L64 192c0-52.928 43.072-96 96-96 1.184 0 2.368 0.064 3.52 0.192L449.952 128C501.984 129.056 544 171.712 544 224l0 608C544 884.928 500.928 928 448 928zM158.528 160.032C141.568 160.8 128 174.848 128 192l0 608c0 17.664 14.368 32 32 32 1.184 0 2.368 0.064 3.52 0.192l285.952 31.776C466.432 863.2 480 849.152 480 832L480 224c0-17.632-14.368-32-32-32-1.184 0-2.368-0.064-3.52-0.192L158.528 160.032z" p-id="4939" fill="#949494"></path><path d="M609.184 924.32c-16.096 0-29.984-12.096-31.776-28.48-1.952-17.568 10.72-33.376 28.288-35.328l254.784-28.32C861.632 832.064 862.816 832 864 832c17.664 0 32-14.336 32-32L896 192c0-17.152-13.568-31.2-30.528-31.968L612.48 188.128c-17.248 2.112-33.376-10.656-35.328-28.256-1.952-17.568 10.72-33.376 28.288-35.328l255.072-28.352C861.632 96.064 862.816 96 864 96c52.928 0 96 43.072 96 96l0 608c0 52.288-41.984 94.944-94.048 95.968l-253.184 28.16C611.552 924.256 610.336 924.32 609.184 924.32z" p-id="4940" fill="#949494"></path></svg>