<?xml version="1.0" standalone="no"?><!DOCTYPE svg PUBLIC "-//W3C//DTD SVG 1.1//EN" "http://www.w3.org/Graphics/SVG/1.1/DTD/svg11.dtd"><svg t="1500188567674" class="icon" style="" viewBox="0 0 1024 1024" version="1.1" xmlns="http://www.w3.org/2000/svg" p-id="4366" xmlns:xlink="http://www.w3.org/1999/xlink" width="200" height="200"><defs><style type="text/css"></style></defs><path d="M64 185.376l0 287.36 0.224 0C64.224 475.424 64 478.144 64 481.184 64 551.936 121.248 608 192 608s128-56.064 128-126.816c0-3.04 0-5.76-0.256-8.448L320 472.736 320 181.856c0-12.64-10.144-22.976-22.688-22.976L94.688 158.88C77.696 158.88 64 168.64 64 185.376z" p-id="4367" fill="#ffffff"></path><path d="M384 185.952l0 287.36 0.224 0c0 2.688-0.224 5.408-0.224 8.448 0 70.752 57.248 126.816 128 126.816s128-56.064 128-126.816c0-3.04 0-5.76-0.256-8.448L640 473.312 640 182.4c0-12.64-10.144-22.976-22.688-22.976l-202.624 0C397.696 159.424 384 169.184 384 185.952z" p-id="4368" fill="#ffffff"></path><path d="M705.312 185.952l0 287.36 0.224 0c0 2.688-0.224 5.408-0.224 8.448 0 70.752 57.248 126.816 128 126.816s128-56.064 128-126.816c0-3.04 0-5.76-0.256-8.448l0.256 0L961.312 182.4c0-12.64-10.144-22.976-22.688-22.976L736 159.424C719.008 159.424 705.312 169.184 705.312 185.952z" p-id="4369" fill="#ffffff"></path><path d="M800 864 256 864c-35.296 0-64-28.704-64-64l0-96c0-17.696 14.336-32 32-32s32 14.304 32 32l0 96 544 0 0-96c0-17.696 14.304-32 32-32s32 14.304 32 32l0 96C864 835.296 835.296 864 800 864z" p-id="4370" fill="#ffffff"></path></svg>